<?xml version="1.0" encoding="utf-8"?>
<!-- Generator: Adobe Illustrator 18.0.0, SVG Export Plug-In . SVG Version: 6.00 Build 0)  -->
<!DOCTYPE svg PUBLIC "-//W3C//DTD SVG 1.1//EN" "http://www.w3.org/Graphics/SVG/1.1/DTD/svg11.dtd">
<svg version="1.1" id="Capa_1" xmlns:sketch="http://www.bohemiancoding.com/sketch/ns"
	 xmlns="http://www.w3.org/2000/svg" xmlns:xlink="http://www.w3.org/1999/xlink" x="0px" y="0px" viewBox="0 0 32 32"
	 enable-background="new 0 0 32 32" xml:space="preserve">
<title>icon 34 award</title>
<desc>Created with Sketch.</desc>
<g>
	<path d="M6,29.3l3.9-1.7l1.7,3.9l4-10.5c-2.1-0.1-4.1-0.8-5.6-2L6,29.3z"/>
	<path d="M22.1,19c-1.6,1.2-3.5,1.9-5.6,2l4,10.5l1.7-3.9l3.9,1.7L22.1,19z"/>
	<path d="M25,11c0-5-4-9-9-9s-9,4-9,9s4,9,9,9S25,16,25,11z M19.5,16L16,13.7L12.5,16l1.5-4l-3-2h3.5L16,6l1.5,4H21l-3,2L19.5,16z"
		/>
</g>
</svg>
