<?xml version="1.0" encoding="iso-8859-1"?>
<!-- Generator: Adobe Illustrator 17.1.0, SVG Export Plug-In . SVG Version: 6.00 Build 0)  -->
<!DOCTYPE svg PUBLIC "-//W3C//DTD SVG 1.1//EN" "http://www.w3.org/Graphics/SVG/1.1/DTD/svg11.dtd">
<svg version="1.1" id="Layer_1" xmlns="http://www.w3.org/2000/svg" xmlns:xlink="http://www.w3.org/1999/xlink" x="0px" y="0px"
	 viewBox="0 0 64 64" style="enable-background:new 0 0 64 64;" xml:space="preserve">
<path d="M39.389,4.646c0,0-1.495,0-2.99,4.378c0,0-5.445,0.961-4.378,7.688c-1.708,5.872-8.328,3.63-11.852,11.211
	s-1.815,14.201-0.641,16.977c0.136,1.442-3.346,2.694-1.463,7.954c2.389,6.673,17.372,5.143,17.799,1.602
	c0,0-10.108,2.153-14.468-1.548c0,0-1.762-1.708-0.694-4.057c0.534-0.961,10.731,1.441,15.055-0.48c0,0,1.121-2.135-2.402-2.135
	c0,0,0.534-1.121,0.961-2.402c0.427-1.281,0.534,4.858,4.698,4.858c0,0,2.349,0.267,1.869-1.869c0,0,1.708-2.029-1.495-2.029
	c0,0-1.246-4.235-0.249-11.211c0.142-3.559,3.701-3.274,3.701-8.471s-1.068-6.976-1.068-6.976s2.905-0.978,3.523-3.897
	c0.079-0.373,0.083-1.637-0.819-1.655c0,0-1.495-3.132-4.413-3.132C40.065,9.45,40.564,5.322,39.389,4.646z"/>
</svg>
