<?xml version="1.0" encoding="utf-8"?>
<!-- Generator: Adobe Illustrator 16.0.0, SVG Export Plug-In . SVG Version: 6.00 Build 0)  -->
<!DOCTYPE svg PUBLIC "-//W3C//DTD SVG 1.1//EN" "http://www.w3.org/Graphics/SVG/1.1/DTD/svg11.dtd">
<svg version="1.1" id="Capa_1" xmlns="http://www.w3.org/2000/svg" xmlns:xlink="http://www.w3.org/1999/xlink" x="0px" y="0px"
	 width="41.665px" height="44.879px" viewBox="0 0 41.665 44.879" enable-background="new 0 0 41.665 44.879" xml:space="preserve">
<g>
	<path d="M22.825,3.313V2.386h1.295V0h-6.438v2.386h1.156v0.927C13.926,3.779,9.514,5.95,6.195,9.229L5.671,8.706l0.771-0.769
		L5.555,7.051L2.771,9.835l0.887,0.886l0.811-0.813l0.574,0.572C1.907,14.125,0,18.859,0,24.045
		c0,11.506,9.324,20.834,20.832,20.834c11.506,0,20.833-9.328,20.833-20.834C41.665,13.213,33.395,4.317,22.825,3.313z
		 M21.717,41.422v-3.105c0-0.486-0.397-0.885-0.885-0.885c-0.488,0-0.883,0.396-0.883,0.885v3.105
		C11.035,40.975,3.905,33.844,3.457,24.93h2.965c0.488,0,0.884-0.396,0.884-0.885c0-0.486-0.396-0.883-0.884-0.883H3.457
		c0.448-8.917,7.582-16.048,16.498-16.495c0,0.014-0.006,0.026-0.006,0.04v3.239c0,0.489,0.395,0.885,0.883,0.885
		c0.487,0,0.885-0.396,0.885-0.885V6.709c0-0.014-0.008-0.026-0.008-0.04c8.914,0.445,16.051,7.578,16.5,16.494h-2.992
		c-0.487,0-0.887,0.396-0.887,0.883c0,0.49,0.396,0.886,0.887,0.886h2.992C37.76,33.844,30.629,40.975,21.717,41.422z"/>
	<path d="M23.833,25.065c0.154-0.47,0.218-0.977,0.145-1.5c-0.256-1.834-1.949-3.113-3.785-2.858
		c-1.833,0.254-3.115,1.95-2.858,3.785c0.255,1.832,1.951,3.111,3.783,2.857c0.68-0.095,1.28-0.388,1.757-0.81
		c2.267,1.479,6.564,4.278,6.564,4.278l2.199,0.375l-1.228-1.853L23.833,25.065z"/>
</g>
</svg>
