<?xml version="1.0" encoding="iso-8859-1"?>
<!-- Generator: Adobe Illustrator 16.0.4, SVG Export Plug-In . SVG Version: 6.00 Build 0)  -->
<!DOCTYPE svg PUBLIC "-//W3C//DTD SVG 1.1//EN" "http://www.w3.org/Graphics/SVG/1.1/DTD/svg11.dtd">
<svg version="1.1" id="Capa_1" xmlns="http://www.w3.org/2000/svg" xmlns:xlink="http://www.w3.org/1999/xlink" x="0px" y="0px"
	 width="25.127px" height="21.386px" viewBox="0 0 25.127 21.386" style="enable-background:new 0 0 25.127 21.386;"
	 xml:space="preserve">
<path style="fill:#231F20;" d="M20.578,10.921c-1.662,1.147-2.8,1.285-2.8,1.285s0.043-5.14-2.932-6.333
	C11.872,4.681,6.098,2.202,5.922,0c0,0-1.268,2.708,0.219,4.589c0.61,0.771,1.233,1.31,1.759,1.678
	c0.312,0.177,0.703,0.291,1.019,0.35c4.389,0.799,3.978,3.295,3.978,3.295s0.058-1.051-1.517-2.187
	c-0.401-0.288-1.034-0.61-2.21-0.746C8.368,6.882,6.828,7.225,4.916,6.883c-2.057-0.367-4.332-1.79-4.332-1.79
	S0.234,7.479,2.99,9.27c2.757,1.789,2.514,1.251,5.082,4.599c0.403,0.525,2.198,1.583,2.198,1.583s-5.354,1.252-7.28,1.572
	c-1.925,0.322-4.243,1.148-2.188,2.708c2.057,1.561,2.275,1.836,4.244,1.561s3.588-2.569,4.987-2.616c0,0,5.645,0.459,7.438,0.047
	c1.794-0.413,3.894-1.056,4.419-4.772c0,0,0.219-1.515,1.662-1.652c1.42-0.135,1.57-0.447,1.574-0.458
	c-0.006,0-0.082-0.031-0.786-0.46C23.51,10.875,22.24,9.773,20.578,10.921z"/>
<g>
</g>
<g>
</g>
<g>
</g>
<g>
</g>
<g>
</g>
<g>
</g>
<g>
</g>
<g>
</g>
<g>
</g>
<g>
</g>
<g>
</g>
<g>
</g>
<g>
</g>
<g>
</g>
<g>
</g>
</svg>
