<?xml version="1.0" encoding="utf-8"?>
<!-- Generator: Adobe Illustrator 16.0.0, SVG Export Plug-In . SVG Version: 6.00 Build 0)  -->
<!DOCTYPE svg PUBLIC "-//W3C//DTD SVG 1.1//EN" "http://www.w3.org/Graphics/SVG/1.1/DTD/svg11.dtd">
<svg version="1.1" id="Layer_1" xmlns="http://www.w3.org/2000/svg" xmlns:xlink="http://www.w3.org/1999/xlink" x="0px" y="0px"
	 width="100px" height="100px" viewBox="0 0 100 100" enable-background="new 0 0 100 100" xml:space="preserve">
<g>
	<path d="M66.979,26.711c4.228,0,7.667-3.439,7.667-7.667s-3.439-7.667-7.667-7.667s-7.667,3.439-7.667,7.667
		S62.751,26.711,66.979,26.711z"/>
	<path d="M29.403,26.711c4.228,0,7.667-3.439,7.667-7.667s-3.439-7.667-7.667-7.667s-7.666,3.439-7.666,7.667
		S25.176,26.711,29.403,26.711z"/>
	<path d="M47.69,50.602l-5.806-20.218c-0.331-1.861-1.926-3.205-3.817-3.205H20.741c-1.892,0-3.487,1.344-3.818,3.205l-5.807,20.218
		c-0.056,0.193-0.051,0.39,0.005,0.569c-0.029,0.186-0.044,0.363-0.044,0.541c0,2.144,1.744,3.887,3.889,3.887
		c1.874,0,3.479-1.339,3.8-3.104l2.507-9.308l-4.146,20.092c-0.182,0.46-0.274,0.942-0.274,1.433c0,2.144,1.744,3.887,3.889,3.887
		h0.423v16.78c0,2.144,1.744,3.887,3.888,3.887s3.888-1.744,3.888-3.887v-16.78h0.929v16.78c0,2.144,1.744,3.887,3.888,3.887
		s3.888-1.744,3.888-3.887v-16.78h0.424c2.144,0,3.887-1.744,3.887-3.887c0-0.495-0.092-0.976-0.274-1.434l-4.144-20.092
		l2.487,9.229c0.339,1.845,1.945,3.184,3.819,3.184c2.144,0,3.887-1.744,3.887-3.887c0-0.177-0.015-0.357-0.044-0.542
		C47.741,50.991,47.746,50.795,47.69,50.602z"/>
	<path d="M85.261,51.17c0.047-0.15,0.058-0.313,0.026-0.477l-3.816-20.246c-0.307-1.894-1.917-3.268-3.829-3.268H56.315
		c-1.913,0-3.523,1.375-3.824,3.243L48.67,50.693c-0.031,0.164-0.021,0.327,0.026,0.477c-0.03,0.185-0.044,0.363-0.044,0.542
		c0,2.144,1.744,3.887,3.888,3.887c1.874,0,3.479-1.339,3.822-3.207l2.408-15.054l-0.031,48.041c0,2.144,1.743,3.887,3.887,3.887
		c2.145,0,3.889-1.744,3.889-3.887v-23.78h0.928v23.78c0,2.144,1.744,3.887,3.889,3.887c2.144,0,3.887-1.744,3.887-3.888
		l-0.031-48.04l2.412,15.077c0.339,1.845,1.944,3.184,3.818,3.184c2.144,0,3.888-1.744,3.888-3.887
		C85.305,51.533,85.291,51.354,85.261,51.17z"/>
</g>
</svg>
