<?xml version="1.0" encoding="utf-8"?>
<!-- Generator: Adobe Illustrator 16.0.0, SVG Export Plug-In . SVG Version: 6.00 Build 0)  -->
<!DOCTYPE svg PUBLIC "-//W3C//DTD SVG 1.1//EN" "http://www.w3.org/Graphics/SVG/1.1/DTD/svg11.dtd">
<svg version="1.1" id="Capa_1" xmlns="http://www.w3.org/2000/svg" xmlns:xlink="http://www.w3.org/1999/xlink" x="0px" y="0px"
	 width="41.404px" height="41.408px" viewBox="0 0 41.404 41.408" enable-background="new 0 0 41.404 41.408" xml:space="preserve">
<g>
	<path d="M18.782,0.315C14.203,0.742,9.733,2.713,6.22,6.224c-3.513,3.51-5.482,7.98-5.908,12.565
		c5.028,0.583,10.374,3.153,14.763,7.542c4.391,4.39,6.964,9.741,7.542,14.764c4.592-0.425,9.052-2.396,12.568-5.905
		c3.512-3.509,5.48-7.982,5.904-12.566c-5.016-0.581-10.372-3.152-14.76-7.541S19.368,5.343,18.782,0.315z"/>
	<path d="M41.168,20.086c-0.149-5.035-2.14-10.023-5.979-13.866c-3.84-3.843-8.833-5.828-13.868-5.984
		c0.566,4.397,2.901,9.122,6.815,13.037C32.052,17.188,36.77,19.519,41.168,20.086z"/>
	<path d="M0.237,21.325c0.148,5.034,2.141,10.023,5.983,13.864c3.839,3.839,8.827,5.834,13.861,5.981
		c-0.566-4.391-2.898-9.114-6.814-13.029C9.355,24.228,4.632,21.896,0.237,21.325z"/>
</g>
</svg>
