<?xml version="1.0" encoding="iso-8859-1"?>
<!-- Generator: Adobe Illustrator 17.1.0, SVG Export Plug-In . SVG Version: 6.00 Build 0)  -->
<!DOCTYPE svg PUBLIC "-//W3C//DTD SVG 1.1//EN" "http://www.w3.org/Graphics/SVG/1.1/DTD/svg11.dtd">
<svg version="1.1" id="Capa_1" xmlns:sketch="http://www.bohemiancoding.com/sketch/ns"
	 xmlns="http://www.w3.org/2000/svg" xmlns:xlink="http://www.w3.org/1999/xlink" x="0px" y="0px" viewBox="0 0 77 46"
	 style="enable-background:new 0 0 77 46;" xml:space="preserve">
<path id="Fill-20" sketch:type="MSShapeGroup" d="M67.064,29.868c-4.871,1.776-10.262-0.735-12.037-5.608
	c-1.776-4.873,0.734-10.262,5.607-12.038c4.872-1.776,10.262,0.734,12.038,5.607S71.938,28.092,67.064,29.868L67.064,29.868z
	 M13.451,33.721c1.171-1.025,2.938-2.572,6.77-2.572s5.598,1.547,6.768,2.571c0.782,0.686,1.017,0.892,2.379,0.892
	c1.363,0,1.598-0.206,2.378-0.891c1.171-1.025,2.938-2.572,6.77-2.572s5.597,1.547,6.768,2.571c0.78,0.686,1.017,0.892,2.379,0.892
	s1.599-0.206,2.378-0.891c0.657-0.574,1.518-1.306,2.809-1.844c0.028-1.753-0.504-3.99-2.143-6.373
	c-0.859-1.248-8.255-11.602-8.255-11.602l9.029-7.124c1.432-1.13,1.677-3.206,0.547-4.637c-1.131-1.432-3.205-1.674-4.637-0.547
	l-11.496,9.071c-1.382,1.09-1.665,3.072-0.645,4.506l6.52,9.162l-25.03,6.084c-2.311,0.562-4.089,2.155-4.999,4.166
	C12.538,34.511,12.822,34.273,13.451,33.721L13.451,33.721z M71.631,37.482c0.885-0.773,1.521-1.334,3.475-1.334
	c0.83,0,1.5-0.67,1.5-1.5c0-0.828-0.67-1.5-1.5-1.5c-3.08,0-4.395,1.152-5.451,2.078c-0.92,0.804-1.584,1.385-3.695,1.385
	c-2.113,0-2.777-0.581-3.697-1.387c-1.056-0.925-2.369-2.076-5.451-2.076c-3.08,0-4.395,1.151-5.451,2.076
	c-0.92,0.806-1.584,1.387-3.696,1.387c-2.113,0-2.776-0.581-3.696-1.387c-1.057-0.925-2.371-2.076-5.451-2.076
	c-3.081,0-4.395,1.151-5.452,2.076c-0.918,0.806-1.583,1.387-3.696,1.387s-2.777-0.581-3.696-1.387
	c-1.057-0.925-2.371-2.076-5.451-2.076s-4.395,1.151-5.452,2.076c-0.918,0.806-1.582,1.387-3.696,1.387
	c-2.113,0-2.777-0.581-3.696-1.387C6.32,34.3,5.006,33.148,1.926,33.148c-0.828,0-1.5,0.672-1.5,1.5c0,0.83,0.672,1.5,1.5,1.5
	c1.952,0,2.591,0.56,3.474,1.334c1.084,0.949,2.433,2.129,5.673,2.129s4.589-1.18,5.673-2.129c0.884-0.774,1.523-1.334,3.475-1.334
	s2.591,0.56,3.474,1.334c1.084,0.949,2.433,2.129,5.673,2.129s4.589-1.18,5.673-2.129c0.884-0.774,1.522-1.334,3.475-1.334
	c1.952,0,2.589,0.56,3.474,1.334c1.084,0.949,2.433,2.129,5.673,2.129c3.239,0,4.589-1.18,5.673-2.129
	c0.885-0.774,1.521-1.334,3.475-1.334s2.592,0.56,3.476,1.334c1.083,0.949,2.432,2.129,5.673,2.129
	C69.199,39.611,70.548,38.432,71.631,37.482L71.631,37.482z M71.631,37.482c0.885-0.773,1.521-1.334,3.475-1.334
	c0.83,0,1.5-0.67,1.5-1.5c0-0.828-0.67-1.5-1.5-1.5c-3.08,0-4.395,1.152-5.451,2.078c-0.92,0.804-1.584,1.385-3.695,1.385
	c-2.113,0-2.777-0.581-3.697-1.387c-1.056-0.925-2.369-2.076-5.451-2.076c-3.08,0-4.395,1.151-5.451,2.076
	c-0.92,0.806-1.584,1.387-3.696,1.387c-2.113,0-2.776-0.581-3.696-1.387c-1.057-0.925-2.371-2.076-5.451-2.076
	c-3.081,0-4.395,1.151-5.452,2.076c-0.918,0.806-1.583,1.387-3.696,1.387s-2.777-0.581-3.696-1.387
	c-1.057-0.925-2.371-2.076-5.451-2.076s-4.395,1.151-5.452,2.076c-0.918,0.806-1.582,1.387-3.696,1.387
	c-2.113,0-2.777-0.581-3.696-1.387C6.32,34.3,5.006,33.148,1.926,33.148c-0.828,0-1.5,0.672-1.5,1.5c0,0.83,0.672,1.5,1.5,1.5
	c1.952,0,2.591,0.56,3.474,1.334c1.084,0.949,2.433,2.129,5.673,2.129s4.589-1.18,5.673-2.129c0.884-0.774,1.523-1.334,3.475-1.334
	s2.591,0.56,3.474,1.334c1.084,0.949,2.433,2.129,5.673,2.129s4.589-1.18,5.673-2.129c0.884-0.774,1.522-1.334,3.475-1.334
	c1.952,0,2.589,0.56,3.474,1.334c1.084,0.949,2.433,2.129,5.673,2.129c3.239,0,4.589-1.18,5.673-2.129
	c0.885-0.774,1.521-1.334,3.475-1.334s2.592,0.56,3.476,1.334c1.083,0.949,2.432,2.129,5.673,2.129
	C69.199,39.611,70.548,38.432,71.631,37.482L71.631,37.482z M71.631,43.42c0.885-0.775,1.521-1.333,3.475-1.333
	c0.83,0,1.5-0.672,1.5-1.5s-0.67-1.5-1.5-1.5c-3.08,0-4.395,1.149-5.451,2.075c-0.918,0.805-1.582,1.386-3.695,1.386
	s-2.777-0.581-3.697-1.386c-1.056-0.926-2.371-2.075-5.451-2.075s-4.395,1.149-5.451,2.075c-0.92,0.805-1.584,1.386-3.696,1.386
	c-2.113,0-2.776-0.581-3.696-1.386c-1.057-0.926-2.371-2.075-5.451-2.075c-3.081,0-4.395,1.149-5.452,2.075
	c-0.918,0.805-1.583,1.386-3.696,1.386s-2.777-0.581-3.696-1.386c-1.057-0.926-2.371-2.075-5.451-2.075s-4.395,1.149-5.452,2.075
	c-0.918,0.805-1.582,1.386-3.696,1.386c-2.113,0-2.777-0.581-3.696-1.386c-1.057-0.926-2.371-2.075-5.451-2.075
	c-0.828,0-1.5,0.672-1.5,1.5s0.672,1.5,1.5,1.5c1.952,0,2.591,0.558,3.474,1.332c1.084,0.949,2.433,2.129,5.673,2.129
	s4.589-1.18,5.672-2.129c0.885-0.774,1.524-1.332,3.476-1.332s2.591,0.558,3.474,1.332c1.084,0.949,2.433,2.129,5.673,2.129
	s4.589-1.18,5.672-2.129c0.885-0.774,1.523-1.332,3.476-1.332c1.952,0,2.589,0.558,3.475,1.332c1.083,0.949,2.432,2.129,5.672,2.129
	c3.239,0,4.589-1.18,5.673-2.129c0.885-0.774,1.521-1.332,3.475-1.332s2.592,0.558,3.476,1.332c1.084,0.949,2.432,2.129,5.673,2.129
	C69.199,45.548,70.548,44.368,71.631,43.42L71.631,43.42z"/>
</svg>
