<?xml version="1.0" encoding="iso-8859-1"?>
<!-- Generator: Adobe Illustrator 18.0.0, SVG Export Plug-In . SVG Version: 6.00 Build 0)  -->
<!DOCTYPE svg PUBLIC "-//W3C//DTD SVG 1.1//EN" "http://www.w3.org/Graphics/SVG/1.1/DTD/svg11.dtd">
<svg version="1.1" id="Capa_1" xmlns="http://www.w3.org/2000/svg" xmlns:xlink="http://www.w3.org/1999/xlink" x="0px" y="0px"
	 viewBox="0 0 94.426 76.218" style="enable-background:new 0 0 94.426 76.218;" xml:space="preserve">
<path d="M92.423,8.719L58.908,0h-0.656h-0.094c-1.312,0-2.381,0.846-2.578,2.11c-0.271,1.736-1.227,3.129-2.859,4.312
	c-1.602,1.161-3.422,1.734-5.485,1.734c-2.062,0-3.89-0.562-5.531-1.734c-1.64-1.172-2.562-2.581-2.859-4.312
	C38.628,0.841,37.533,0,36.268,0H36.08h-0.656L1.909,8.719c-1.365,0.355-2.176,1.821-1.828,3.187l4.687,18.422
	c0.295,1.158,1.359,1.922,2.625,1.922h12.375v41.39c0,1.453,1.125,2.578,2.578,2.578h49.64c1.453,0,2.672-1.125,2.672-2.578V32.25
	h12.375c1.172,0,2.242-0.81,2.531-1.922l4.781-18.422C94.699,10.541,93.876,9.097,92.423,8.719z M85.017,27.047H71.986
	c-1.359,0-2.578,1.172-2.578,2.625v41.343H24.924V29.672c0-1.453-1.125-2.625-2.578-2.625H9.409L5.752,13.125l28.781-7.453
	c1.032,2.297,2.672,4.172,4.969,5.625s4.875,2.156,7.734,2.156c2.813,0,5.344-0.703,7.641-2.156s3.984-3.328,5.015-5.625
	l28.781,7.453L85.017,27.047z"/>
<g>
</g>
<g>
</g>
<g>
</g>
<g>
</g>
<g>
</g>
<g>
</g>
<g>
</g>
<g>
</g>
<g>
</g>
<g>
</g>
<g>
</g>
<g>
</g>
<g>
</g>
<g>
</g>
<g>
</g>
</svg>
