<?xml version="1.0" encoding="utf-8"?>
<!-- Generator: Adobe Illustrator 17.0.0, SVG Export Plug-In . SVG Version: 6.00 Build 0)  -->
<!DOCTYPE svg PUBLIC "-//W3C//DTD SVG 1.1//EN" "http://www.w3.org/Graphics/SVG/1.1/DTD/svg11.dtd">
<svg version="1.1" id="Layer_1" xmlns="http://www.w3.org/2000/svg" xmlns:xlink="http://www.w3.org/1999/xlink" x="0px" y="0px"
	 width="32px" height="32px" viewBox="0 0 32 32" enable-background="new 0 0 32 32" xml:space="preserve">
<ellipse cx="16.456" cy="2.945" rx="2.587" ry="2.635"/>
<path d="M22.147,12.832c0.23-0.981-1.104-5.02-1.104-5.02c-0.149-0.381-0.858-1.548-2.853-1.56l-3.897,0.012
	c-1.933-0.107-2.646,0.999-2.825,1.584c0,0-1.295,4.068-1.08,4.984c0.143,0.602,1.218,1.341,2.35,1.88l-2.375,7.244l3.476-0.01
	l0.009,8.789c0.067,0.677,0.538,0.925,1.116,0.925c0.575,0,1.047-0.228,1.113-0.904h0.358c0.067,0.677,0.535,0.916,1.113,0.916
	c0.578,0,1.046-0.254,1.115-0.93l0.01-8.796l3.705,0.005l-2.261-7.396C21.125,14.035,22.019,13.376,22.147,12.832z"/>
</svg>
